<svg id="Capa_1" enable-background="new 0 0 512 512" height="512" viewBox="0 0 512 512" width="512" xmlns="http://www.w3.org/2000/svg" xmlns:xlink="http://www.w3.org/1999/xlink"><linearGradient id="SVGID_1_" gradientUnits="userSpaceOnUse" x1="246" x2="246" y1="76.227" y2="383.541"><stop offset=".00000036422" stop-color="#a8abff"/><stop offset="1" stop-color="#fac8ff"/></linearGradient><linearGradient id="SVGID_2_" gradientUnits="userSpaceOnUse" x1="256" x2="256" y1=".283" y2="511.717"><stop offset=".00000011981" stop-color="#174fa3"/><stop offset="1" stop-color="#b044af"/></linearGradient><g id="Filled_41_"><path d="m7.5 324.217v-146.133c0-8.625 4.446-16.642 11.763-21.208l236.737-147.752 236.737 147.752c7.317 4.567 11.763 12.583 11.763 21.208v146.133z" fill="#fff"/><g><path d="m382.099 303.363-169.834 77.465c-15.074 6.876-32.869.23-39.745-14.845l-77.464-169.833c-6.876-15.074-.23-32.869 14.845-39.745l169.833-77.465c15.074-6.876 32.869-.23 39.745 14.845l77.465 169.834c6.876 15.074.23 32.868-14.845 39.744z" fill="url(#SVGID_1_)"/></g><path d="m278.591 340.581-7.925-5.741c-8.75-6.338-20.581-6.338-29.331 0l-7.925 5.741-225.91-136.364v275c0 13.807 11.193 25 25 25h447c6.304 0 12.059-2.338 16.456-6.188 5.234-4.583 8.544-11.309 8.544-18.812v-275z" fill="#fff"/><path d="m206.933 139.095c-39.882 20.495-57.886 68.592-41.186 110.264 18.618 46.453 72.152 67.85 117.564 47.134l40.032-18.259-6.225-13.647-40.032 18.26c-37.483 17.096-81.937-.442-97.416-39.067-13.755-34.32 1.231-74.442 34.117-91.342 37.199-19.118 82.18-2.9 99.174 34.359l8.301 18.197c6.865 15.062-15.962 25.251-22.747 10.375l-8.284-18.163c-.005-.011-.009-.022-.014-.033-10.894-23.884-39.041-34.404-62.929-23.505-23.884 10.893-34.399 39.04-23.505 62.929 10.852 23.789 38.947 34.444 62.929 23.504 11.544-5.265 20.346-14.711 24.785-26.596.275-.735.53-1.475.767-2.217 22.692 18.887 54.607-6.293 42.646-32.518l-8.301-18.197c-20.678-45.341-75.106-64.383-119.676-41.478zm70.512 89.16c-3.037 8.133-9.06 14.595-16.958 18.198-16.343 7.452-35.602.263-43.057-16.082-7.454-16.343-.263-35.601 16.082-43.058 16.409-7.482 35.632-.197 43.056 16.083h.001c3.603 7.899 3.914 16.728.876 24.859zm219.262-77.742-240.707-150.23-240.707 150.23c-9.576 5.976-15.293 16.282-15.293 27.57v301.134c0 18.007 14.619 32.5 32.5 32.5h447c17.898 0 32.5-14.511 32.5-32.5 0-16.014 0-287.521 0-301.134 0-11.288-5.717-21.594-15.293-27.57zm-2.004 337.347-202.54-146.709 204.837-123.646c-.831 273.911 2.03 262.755-2.297 270.355zm-215.734-156.266-3.904-2.828c-21.879-15.85-41.108 2.493-42.033 2.828l-93.771-56.603-37.379-81.959c-5.161-11.306-.182-24.644 11.131-29.801l169.827-77.469c11.294-5.145 24.667-.146 29.816 11.138l76.663 168.083zm-59.132 9.557-202.542 146.711c-4.353-7.654-1.464 3.144-2.295-270.356zm-189.071 155.474 214.968-155.711c6.141-4.449 14.391-4.449 20.531 0l214.968 155.711c-1.098.11-448.832.163-450.467 0zm371.481-239.445-75.943-166.506c-8.581-18.807-30.867-27.136-49.686-18.561l-169.828 77.47c-18.853 8.592-27.162 30.823-18.555 49.676l28.275 62-101.51-61.275v-21.9c0-6.078 3.078-11.628 8.234-14.846l232.766-145.274 232.766 145.273c5.156 3.218 8.234 8.768 8.234 14.846v21.9z" fill="url(#SVGID_2_)"/></g></svg>