<svg id="muscle-power" enable-background="new 0 0 300 300" height="512" viewBox="0 0 300 300" width="512" xmlns="http://www.w3.org/2000/svg" xmlns:xlink="http://www.w3.org/1999/xlink"><linearGradient id="SVGID_1_" gradientUnits="userSpaceOnUse" x1="87.431" x2="224.955" y1="240.233" y2="102.709"><stop offset="0" stop-color="#107eff"/><stop offset="1" stop-color="#8f16ff"/></linearGradient><g><path d="m60.411 102c-2.209 0-4-1.791-4-4s1.791-4 4-4 4 1.791 4 4-1.791 4-4 4zm63.466 140.523c1.555 2.906 1.887 6.246.93 9.398-.957 3.156-3.082 5.75-5.988 7.305-1.816.969-3.801 1.461-5.805 1.461-1.203 0-2.41-.176-3.594-.535-3.152-.957-5.746-3.082-7.301-5.988s-1.887-6.246-.93-9.398 3.082-5.746 5.988-7.301c2.902-1.559 6.238-1.891 9.398-.93 3.153.957 5.747 3.082 7.302 5.988zm-7.055 3.774c-.547-1.02-1.457-1.77-2.566-2.105-.414-.125-.84-.188-1.262-.188-.703 0-1.402.172-2.043.516-1.02.547-1.77 1.457-2.105 2.566s-.219 2.281.328 3.305c.547 1.02 1.457 1.77 2.566 2.105 1.109.332 2.277.223 3.305-.324 1.02-.547 1.77-1.461 2.105-2.57s.219-2.282-.328-3.305zm123.738 9.945c-8.258-2.074-16.551-6.988-22.766-13.488-6.024-6.289-10.104-13.122-12.252-17.205 4.771-1.466 9.407-3.041 12.354-4.073 2.816 4.52 8.828 12.648 17.016 15.375.422.141.848.207 1.266.207 1.676 0 3.238-1.059 3.793-2.734.699-2.098-.434-4.363-2.527-5.059-6.777-2.258-12.523-11.211-14.164-14.469-.91-1.812-3.031-2.664-4.941-1.965-.156.055-15.621 5.664-24.836 7.738-10.273 2.223-36.57 6.875-58.566 2.004-14.828-3.289-33.41-13.035-55.215-28.957-2.074-1.527-5.297-2.762-8.141-3.848-1.199-.461-2.844-1.09-3.164-1.277-.152-.117-.227-.281-.227-.492v-7.629c.137-6.387 21.82-111.09 25.352-122.5.105-.078.258-.172.391-.234l49.621-22.676 15.844 20.633c.605.836.559 1.988-.113 2.742l-16.047 17.973c-.758.855-2.098.945-2.863.305l-6.477-5.957c-.945-.871-2.246-1.281-3.48-1.027-1.262.258-2.289 1.051-2.816 2.223-.98 1.348-6.988 3.348-12.605 4.191-1.617.246-2.926 1.449-3.301 3.043-.371 1.59.258 3.25 1.598 4.191l2.441 1.711 7.546 56.793c-2.419 3.117-4.486 6.558-6.074 10.312-.859 2.035.09 4.383 2.125 5.242.508.215 1.039.316 1.559.316 1.559 0 3.039-.914 3.684-2.441 5.962-14.101 19.704-23.21 35.013-23.21 14.574 0 28.047 8.504 34.324 21.668.945 1.988 3.332 2.848 5.332 1.887 1.992-.949 2.84-3.336 1.887-5.332-2.021-4.237-4.672-8.059-7.786-11.411 6.571-9.163 17.894-14.812 30.243-14.812 5.059 0 9.949.914 14.535 2.723 2.047.797 4.375-.199 5.188-2.258.809-2.055-.199-4.375-2.258-5.188-5.52-2.176-11.398-3.277-17.465-3.277-14.59 0-28.072 6.62-36.207 17.417-7.876-5.968-17.606-9.417-27.793-9.417-10.911 0-21.148 3.847-29.21 10.477l-6.919-52.071c2.73-.777 5.57-1.852 7.793-3.316l3.836 3.527c4.25 3.574 10.453 3.141 14.125-.992l16.043-17.965c3.16-3.551 3.414-8.926.543-12.859l-17.84-23.238c-1.137-1.48-3.148-1.973-4.836-1.199l-52.43 23.961c-.609.258-3.699 1.719-4.664 4.777-2.785 8.395-25.84 117.242-25.84 125.258v7.64c0 2.676 1.199 5.148 3.262 6.766 1.039.832 2.523 1.422 5.27 2.473 2.133.816 5.055 1.938 6.27 2.832 22.715 16.586 42.301 26.785 58.215 30.316 22.695 5.023 48.578.902 62.023-2.004.784-.177 1.619-.384 2.466-.6 2.249 4.516 6.931 12.784 14.323 20.498 6.469 6.773 14.918 12.074 23.57 14.852v6.867c0 2.211 1.789 4 4 4s4-1.789 4-4v-9.879c0-1.832-1.247-3.434-3.028-3.879zm-69.758-48.164c-36.242 7.23-47.199-13.027-47.637-13.867-.523-1.043-1.477-1.809-2.609-2.09l-16-4c-2.141-.543-4.316.762-4.848 2.91-.539 2.141.766 4.312 2.91 4.848l14.383 3.598c3.148 4.836 14.086 18.176 38.957 18.176 4.91 0 10.367-.52 16.414-1.73 2.164-.434 3.57-2.539 3.137-4.707-.429-2.165-2.519-3.595-4.707-3.138zm12.215-46.02-24 40c-.734 1.227-2.051 1.941-3.43 1.941-.355 0-.715-.047-1.066-.145-1.734-.48-2.934-2.059-2.934-3.855v-20h-12c-1.477 0-2.832-.812-3.527-2.113s-.617-2.879.199-4.105l24-36c.977-1.465 2.809-2.121 4.488-1.609 1.688.512 2.84 2.066 2.84 3.828v16h12c1.441 0 2.77.773 3.48 2.027.712 1.258.692 2.797-.05 4.031z" fill="url(#SVGID_1_)"/></g></svg>