<svg id="Layer_1" enable-background="new 0 0 128 128" height="512" viewBox="0 0 128 128" width="512" xmlns="http://www.w3.org/2000/svg"><g><g><g><path d="m56.555 89.906h41.31c4.007 0 7.568-2.692 8.66-6.548l8.021-28.333c.684-2.403-.55-4.892-2.809-5.665-1.185-.404-2.447-.31-3.555.269-1.104.578-1.901 1.556-2.239 2.743l-7.838 26.389c-.375 1.263-1.558 2.146-2.875 2.146h-30.304c-1.339 0-2.527-.9-2.888-2.189l-11.064-39.423c-1.085-3.866-4.648-6.567-8.665-6.567h-20.542c-2.481 0-4.5 2.019-4.5 4.5s2.019 4.5 4.5 4.5h18.087c1.333 0 2.52.896 2.885 2.177l10.619 37.208c-6.388 1.111-10.993 6.772-10.663 13.387.342 6.887 6.182 12.281 13.294 12.281h47.341c2.481 0 4.5-2.019 4.5-4.5s-2.019-4.5-4.5-4.5h-46.779c-1.051 0-2.04-.409-2.783-1.153-.744-.743-1.153-1.732-1.152-2.784 0-2.171 1.768-3.938 3.939-3.938z" fill="#e6e7e8"/></g><g><path d="m69.268 108.948c-4.779 0-8.667 3.888-8.667 8.667 0 4.778 3.888 8.666 8.667 8.666s8.667-3.888 8.667-8.666c-.001-4.779-3.888-8.667-8.667-8.667z" fill="#e6e7e8"/></g><g><path d="m91.934 108.948c-4.779 0-8.667 3.888-8.667 8.667 0 4.778 3.888 8.666 8.667 8.666s8.667-3.888 8.667-8.666c0-4.779-3.888-8.667-8.667-8.667z" fill="#e6e7e8"/></g><g><path d="m80.784 13.156c.552 0 1-.447 1-1v-5.437c0-.553-.448-1-1-1s-1 .447-1 1v5.438c0 .552.448.999 1 .999z" fill="#e6e7e8"/></g><g><path d="m67.2 18.108c.195.195.451.293.707.293s.512-.098.707-.293c.391-.391.391-1.023 0-1.414l-3.845-3.845c-.391-.391-1.023-.391-1.414 0s-.391 1.023 0 1.414z" fill="#e6e7e8"/></g><g><path d="m57.072 31.216h5.438c.552 0 1-.447 1-1s-.448-1-1-1h-5.438c-.552 0-1 .447-1 1s.448 1 1 1z" fill="#e6e7e8"/></g><g><path d="m97.843 30.431c0 .553.448 1 1 1h5.438c.552 0 1-.447 1-1s-.448-1-1-1h-5.438c-.552 0-1 .447-1 1z" fill="#e6e7e8"/></g><g><path d="m93.598 18.554c.256 0 .512-.098.707-.293l3.845-3.845c.391-.391.391-1.023 0-1.414s-1.023-.391-1.414 0l-3.845 3.845c-.391.391-.391 1.023 0 1.414.196.195.452.293.707.293z" fill="#e6e7e8"/></g><g><path d="m69.479 42.614c3.039 2.938 4.713 6.701 4.713 10.598v5.75c0 1.842 1.046 3.429 2.565 4.247.245 1.955 1.899 3.479 3.92 3.479 1.978 0 3.609-1.459 3.907-3.355 1.644-.775 2.793-2.436 2.793-4.371v-5.625c0-4.002 1.654-7.85 4.539-10.557 3.263-3.063 5.134-7.384 5.134-11.854s-1.869-8.792-5.128-11.854c-3.305-3.106-7.632-4.655-12.174-4.379-8.213.511-14.896 7.357-15.215 15.587-.181 4.625 1.622 9.121 4.946 12.334z" fill="#e6e7e8"/></g></g><g><g><path d="m47.615 89.844c.001-2.727 2.212-4.938 4.939-4.938h41.31c3.579 0 6.723-2.377 7.698-5.821l8.021-28.333c.517-1.818-.382-3.834-2.17-4.445-1.913-.654-3.964.428-4.512 2.351l-7.838 26.388c-.504 1.697-2.064 2.861-3.834 2.861h-30.302c-1.793 0-3.367-1.193-3.851-2.919l-11.065-39.422c-.969-3.452-4.117-5.838-7.702-5.838h-20.541c-1.933 0-3.5 1.567-3.5 3.5 0 1.933 1.567 3.5 3.5 3.5h18.087c1.786 0 3.356 1.184 3.846 2.902l10.938 38.326c-6.323.516-11.27 5.97-10.946 12.494.319 6.415 5.872 11.332 12.296 11.332h47.341c1.933 0 3.5-1.567 3.5-3.5 0-1.933-1.567-3.5-3.5-3.5h-46.779c-2.727-.001-4.937-2.212-4.936-4.938z" fill="#6dc9f7"/></g><g fill="#0089ef"><ellipse cx="65.268" cy="113.615" rx="7.667" ry="7.667" transform="matrix(.383 -.924 .924 .383 -64.675 130.436)"/><circle cx="87.935" cy="113.615" r="7.667"/></g><g><g><path d="m92.049 26.925c0-8.753-7.367-15.786-16.239-15.235-7.758.482-13.977 6.86-14.279 14.627-.176 4.548 1.639 8.673 4.643 11.577 3.1 2.996 5.018 7.005 5.018 11.316v5.75c0 2.122 1.721 3.843 3.843 3.843h3.498c2.122 0 3.843-1.721 3.843-3.843v-5.625c0-4.269 1.742-8.364 4.855-11.286 2.966-2.781 4.818-6.735 4.818-11.124z" fill="#fa759e"/></g><path d="m71.192 48.75v6.212c0 1.66 1.058 3.061 2.532 3.598-.003.054-.016.104-.016.159 0 1.64 1.329 2.969 2.969 2.969s2.969-1.329 2.969-2.969c0-.032-.008-.062-.009-.094 1.581-.476 2.74-1.927 2.74-3.663v-6.212z" fill="#6dc9f7"/><g><path d="m75.808 14.691c8.363-.52 15.383 5.699 16.163 13.745.049-.497.078-1.001.078-1.511 0-8.754-7.368-15.786-16.241-15.234-7.611.474-13.801 6.676-14.26 14.288-.049.82-.012 1.621.064 2.411.736-7.339 6.784-13.238 14.196-13.699z" fill="#fff"/></g><g><path d="m82.378 30.835c-.272-.525-.649-.959-1.133-1.303-.484-.343-1.071-.635-1.761-.876-.481-.167-1.016-.321-1.575-.469v-3.86c.187.072.357.156.489.265.385.319.714.764.989 1.334.213.398.41.685.592.86s.448.262.798.262c.385 0 .706-.146.963-.438.258-.292.386-.62.386-.984 0-.398-.103-.807-.309-1.226s-.532-.819-.978-1.2c-.447-.381-1.008-.687-1.684-.917-.375-.128-.793-.216-1.246-.273v-2.092c0-.62-.503-1.123-1.123-1.123s-1.123.503-1.123 1.123v2.083c-.713.076-1.364.224-1.941.457-.859.347-1.514.843-1.967 1.489-.453.645-.68 1.384-.68 2.215 0 .872.214 1.602.644 2.189.429.587 1.009 1.051 1.741 1.391.609.283 1.349.535 2.204.758v4.69c-.202-.05-.389-.112-.55-.196-.405-.21-.719-.476-.942-.798-.223-.323-.431-.724-.623-1.205-.158-.405-.349-.711-.572-.917s-.496-.309-.819-.309c-.398 0-.726.132-.984.397-.258.264-.386.582-.386.953 0 .639.214 1.296.644 1.973.429.676.987 1.217 1.674 1.622.711.414 1.566.672 2.559.782v2.082c0 .62.503 1.123 1.123 1.123s1.123-.503 1.123-1.123v-2.089c.779-.089 1.485-.267 2.106-.549.907-.412 1.595-.982 2.065-1.71s.705-1.549.705-2.462c-.003-.759-.138-1.403-.409-1.929zm-7.545-3.6c-.289-.158-.515-.347-.68-.566-.165-.22-.247-.481-.247-.783 0-.488.242-.905.726-1.252.287-.206.635-.343 1.029-.426v3.381c-.279-.088-.556-.204-.828-.354zm4.084 7.442c-.291.217-.628.376-1.009.481v-4.068c.072.023.149.046.216.069.484.165.879.403 1.185.716s.458.719.458 1.221c-.001.632-.284 1.159-.85 1.581z" fill="#fff"/></g><g fill="#3a2c60"><path d="m49.774 52.673 1.476 5.257c.124.441.525.729.962.729.089 0 .18-.012.271-.037.532-.149.842-.701.693-1.233l-1.476-5.257c-.149-.531-.7-.844-1.233-.692-.532.149-.842.701-.693 1.233z"/><path d="m52.555 85.906h41.31c4.007 0 7.568-2.693 8.66-6.549l8.02-28.332c.684-2.404-.55-4.893-2.808-5.665-1.187-.406-2.449-.311-3.555.269-1.105.578-1.901 1.557-2.239 2.743l-7.839 26.388c-.375 1.264-1.558 2.146-2.876 2.146h-30.301c-1.339 0-2.527-.9-2.889-2.189l-3.855-13.735c-.149-.532-.702-.843-1.233-.692-.532.149-.842.701-.693 1.233l3.855 13.735c.604 2.148 2.583 3.648 4.814 3.648h30.301c2.196 0 4.167-1.471 4.793-3.576l7.841-26.398c.189-.666.632-1.209 1.246-1.53.616-.322 1.32-.375 1.981-.148 1.231.421 1.918 1.867 1.531 3.227l-8.019 28.332c-.849 2.999-3.619 5.094-6.735 5.094h-41.31c-3.274 0-5.938 2.663-5.939 5.938 0 1.586.617 3.076 1.738 4.198 1.121 1.121 2.612 1.739 4.198 1.739h46.778c1.378 0 2.5 1.121 2.5 2.5s-1.122 2.5-2.5 2.5h-47.341c-6.045 0-11.007-4.561-11.297-10.382-.295-5.936 4.11-10.964 10.029-11.446.299-.024.57-.182.741-.428.17-.246.222-.556.139-.844l-10.939-38.326c-.609-2.136-2.586-3.628-4.808-3.628h-18.087c-1.378 0-2.5-1.121-2.5-2.5s1.122-2.5 2.5-2.5h20.542c3.124 0 5.896 2.101 6.739 5.108l3.701 13.185c.149.532.7.842 1.233.692.532-.149.842-.701.693-1.233l-3.701-13.185c-1.085-3.866-4.648-6.567-8.665-6.567h-20.542c-2.481 0-4.5 2.019-4.5 4.5s2.019 4.5 4.5 4.5h18.087c1.333 0 2.519.896 2.885 2.177l10.619 37.208c-6.388 1.111-10.993 6.772-10.664 13.387.343 6.887 6.182 12.282 13.294 12.282h47.342c2.481 0 4.5-2.019 4.5-4.5s-2.019-4.5-4.5-4.5h-46.779c-1.051 0-2.04-.409-2.783-1.153-.744-.743-1.153-1.732-1.152-2.784 0-2.172 1.767-3.939 3.939-3.939z"/><path d="m65.268 104.948c-4.779 0-8.667 3.888-8.667 8.666 0 4.779 3.888 8.667 8.667 8.667s8.667-3.888 8.667-8.667c0-4.778-3.889-8.666-8.667-8.666zm0 15.333c-3.676 0-6.667-2.991-6.667-6.667s2.991-6.666 6.667-6.666 6.667 2.99 6.667 6.666-2.991 6.667-6.667 6.667z"/><path d="m87.935 104.948c-4.779 0-8.667 3.888-8.667 8.666 0 4.779 3.888 8.667 8.667 8.667s8.667-3.888 8.667-8.667c-.001-4.778-3.889-8.666-8.667-8.666zm0 15.333c-3.676 0-6.667-2.991-6.667-6.667s2.991-6.666 6.667-6.666 6.667 2.99 6.667 6.666-2.992 6.667-6.667 6.667z"/><path d="m76.784 9.156c.552 0 1-.447 1-1v-5.437c0-.553-.448-1-1-1s-1 .447-1 1v5.438c0 .552.448.999 1 .999z"/><path d="m63.2 14.108c.195.195.451.293.707.293s.512-.098.707-.293c.391-.391.391-1.023 0-1.414l-3.845-3.844c-.391-.391-1.023-.391-1.414 0s-.391 1.023 0 1.414z"/><path d="m53.073 27.215h5.438c.552 0 1-.447 1-1s-.448-1-1-1h-5.438c-.552 0-1 .447-1 1s.448 1 1 1z"/><path d="m93.843 26.431c0 .553.448 1 1 1h5.438c.552 0 1-.447 1-1s-.448-1-1-1h-5.438c-.552 0-1 .447-1 1z"/><path d="m89.599 14.554c.256 0 .512-.098.707-.293l3.845-3.846c.391-.391.391-1.023 0-1.414s-1.023-.391-1.414 0l-3.845 3.846c-.391.391-.391 1.023 0 1.414.195.195.451.293.707.293z"/><path d="m65.48 38.614c3.039 2.938 4.713 6.701 4.713 10.598v5.75c0 1.843 1.046 3.429 2.565 4.247.245 1.955 1.899 3.478 3.919 3.478 1.978 0 3.609-1.459 3.907-3.355 1.644-.775 2.793-2.436 2.793-4.371v-5.625c0-4.002 1.654-7.85 4.539-10.557 3.263-3.063 5.134-7.384 5.134-11.855s-1.869-8.791-5.128-11.854c-3.305-3.105-7.626-4.653-12.173-4.379-8.213.511-14.897 7.357-15.216 15.587-.18 4.628 1.623 9.123 4.947 12.336zm15.897 11.136v3h-9.184v-3zm-4.7 10.938c-.683 0-1.281-.352-1.633-.883h3.264c-.352.53-.948.883-1.631.883zm1.856-2.883h-3.498c-1.567 0-2.843-1.275-2.843-2.843v-.212h9.184v.212c.001 1.567-1.275 2.843-2.843 2.843zm-2.661-45.116c.309-.02.615-.028.921-.028 3.649 0 7.084 1.355 9.759 3.868 2.9 2.726 4.498 6.418 4.498 10.396 0 3.979-1.599 7.672-4.503 10.396-2.901 2.724-4.705 6.458-5.088 10.429h-9.343c-.367-3.912-2.192-7.622-5.246-10.573-2.915-2.817-4.496-6.762-4.339-10.819.28-7.217 6.14-13.221 13.341-13.669z"/></g></g></g></g></svg>